<svg width="32" height="32" viewBox="0 0 32 32" fill="none" xmlns="http://www.w3.org/2000/svg">
  <rect width="32" height="32" rx="8" fill="#0F172A"/>
  <path d="M16 6C10.4772 6 6 10.4772 6 16C6 21.5228 10.4772 26 16 26C21.5228 26 26 21.5228 26 16C26 10.4772 21.5228 6 16 6ZM16 24C11.5817 24 8 20.4183 8 16C8 11.5817 11.5817 8 16 8C20.4183 8 24 11.5817 24 16C24 20.4183 20.4183 24 16 24Z" fill="#22D3EE"/>
  <path d="M16 11C13.2386 11 11 13.2386 11 16C11 18.7614 13.2386 21 16 21C18.7614 21 21 18.7614 21 16C21 13.2386 18.7614 11 16 11ZM16 19C14.3431 19 13 17.6569 13 16C13 14.3431 14.3431 13 16 13C17.6569 13 19 14.3431 19 16C19 17.6569 17.6569 19 16 19Z" fill="#22D3EE"/>
  <circle cx="16" cy="16" r="2" fill="#FFFFFF"/>
  <path d="M16 4V8M16 24V28M4 16H8M24 16H28M7.5 7.5L10.3 10.3M21.7 21.7L24.5 24.5M7.5 24.5L10.3 21.7M21.7 10.3L24.5 7.5" stroke="#22D3EE" stroke-width="2" stroke-linecap="round"/>
</svg>
